<svg xmlns="http://www.w3.org/2000/svg" viewBox="0 0 512 512" role="img" aria-labelledby="title desc">
  <title id="title">Razom Car Sharing icon</title>
  <desc id="desc">Rounded app icon with a car route mark.</desc>
  <defs>
    <linearGradient id="bg" x1="64" y1="64" x2="448" y2="448" gradientUnits="userSpaceOnUse">
      <stop stop-color="#14b8a6"/>
      <stop offset="0.52" stop-color="#22c55e"/>
      <stop offset="1" stop-color="#0ea5e9"/>
    </linearGradient>
    <filter id="shadow" x="-20%" y="-20%" width="140%" height="140%">
      <feDropShadow dx="0" dy="18" stdDeviation="18" flood-color="#064e3b" flood-opacity="0.3"/>
    </filter>
  </defs>
  <rect width="512" height="512" rx="116" fill="url(#bg)"/>
  <path d="M118 318c17-68 35-102 55-102h166c20 0 38 34 55 102" fill="none" stroke="#ffffff" stroke-width="30" stroke-linecap="round" stroke-linejoin="round" filter="url(#shadow)"/>
  <path d="M151 318h210c25 0 45 20 45 45v24H106v-24c0-25 20-45 45-45Z" fill="#ffffff" filter="url(#shadow)"/>
  <circle cx="171" cy="384" r="25" fill="#0f766e"/>
  <circle cx="341" cy="384" r="25" fill="#0f766e"/>
  <path d="M173 192c29-34 68-51 116-51 31 0 58 7 82 22" fill="none" stroke="#ffffff" stroke-width="22" stroke-linecap="round"/>
  <path d="M364 130l21 45-49 8" fill="none" stroke="#ffffff" stroke-width="22" stroke-linecap="round" stroke-linejoin="round"/>
  <text x="256" y="102" text-anchor="middle" font-family="Segoe UI, Arial, sans-serif" font-size="58" font-weight="800" fill="#ffffff">R</text>
</svg>
