<svg xmlns="http://www.w3.org/2000/svg" viewBox="0 0 900 260" role="img" aria-labelledby="title desc">
  <title id="title">FlowForge Apps logo</title>
  <desc id="desc">Developer logo combining a car route, VPN shield, AI document, and QA checkmark.</desc>
  <defs>
    <linearGradient id="mark" x1="80" y1="40" x2="250" y2="220" gradientUnits="userSpaceOnUse">
      <stop stop-color="#38bdf8"/>
      <stop offset="0.52" stop-color="#22c55e"/>
      <stop offset="1" stop-color="#a78bfa"/>
    </linearGradient>
  </defs>
  <rect width="900" height="260" rx="36" fill="#0f172a"/>
  <circle cx="145" cy="130" r="86" fill="url(#mark)" opacity="0.18"/>
  <path d="M94 150c16-40 30-58 44-58h52c14 0 28 18 44 58" fill="none" stroke="#38bdf8" stroke-width="12" stroke-linecap="round"/>
  <path d="M86 153h156c12 0 22 10 22 22v16H64v-16c0-12 10-22 22-22Z" fill="#f8fafc"/>
  <circle cx="111" cy="191" r="13" fill="#0f172a"/>
  <circle cx="217" cy="191" r="13" fill="#0f172a"/>
  <path d="M145 43l54 20v39c0 36-21 59-54 73-33-14-54-37-54-73V63l54-20Z" fill="#0f172a" stroke="#22c55e" stroke-width="10" stroke-linejoin="round"/>
  <path d="M156 73l-36 54h27l-7 35 39-56h-29l6-33Z" fill="#22c55e"/>
  <path d="M221 65h38l18 18v68h-56V65Z" fill="#f8fafc"/>
  <path d="M259 65v18h18" fill="#cbd5e1"/>
  <path d="M235 103h27M235 126h18" stroke="#0f172a" stroke-width="7" stroke-linecap="round"/>
  <path d="M267 141l13 13 28-33" fill="none" stroke="#22c55e" stroke-width="9" stroke-linecap="round" stroke-linejoin="round"/>
  <text x="330" y="118" font-family="Segoe UI, Arial, sans-serif" font-size="54" font-weight="800" fill="#f8fafc">FlowForge Apps</text>
  <text x="333" y="162" font-family="Segoe UI, Arial, sans-serif" font-size="23" fill="#94a3b8">Built apps. Tested flows. Reliable launches.</text>
</svg>
