<svg xmlns="http://www.w3.org/2000/svg" viewBox="0 0 900 260" role="img" aria-labelledby="title desc">
  <title id="title">Kasyanov Stack logo</title>
  <desc id="desc">Developer logo with three project tiles for mobility, VPN security, and AI resume generation.</desc>
  <defs>
    <linearGradient id="tileA" x1="50" y1="54" x2="180" y2="190" gradientUnits="userSpaceOnUse">
      <stop stop-color="#14b8a6"/>
      <stop offset="1" stop-color="#38bdf8"/>
    </linearGradient>
    <linearGradient id="tileB" x1="139" y1="34" x2="270" y2="170" gradientUnits="userSpaceOnUse">
      <stop stop-color="#2563eb"/>
      <stop offset="1" stop-color="#22d3ee"/>
    </linearGradient>
    <linearGradient id="tileC" x1="116" y1="118" x2="250" y2="240" gradientUnits="userSpaceOnUse">
      <stop stop-color="#a855f7"/>
      <stop offset="1" stop-color="#f59e0b"/>
    </linearGradient>
  </defs>
  <rect width="900" height="260" rx="36" fill="#0b1120"/>
  <rect x="62" y="76" width="108" height="108" rx="28" fill="url(#tileA)"/>
  <rect x="152" y="50" width="108" height="108" rx="28" fill="url(#tileB)"/>
  <rect x="126" y="130" width="108" height="108" rx="28" fill="url(#tileC)"/>
  <path d="M88 139h57c9 0 16 7 16 16v9H72v-9c0-9 7-16 16-16Z" fill="#fff"/>
  <path d="M83 138c8-22 16-32 24-32h22c8 0 16 10 24 32" fill="none" stroke="#fff" stroke-width="8" stroke-linecap="round"/>
  <circle cx="95" cy="165" r="7" fill="#0f172a"/>
  <circle cx="145" cy="165" r="7" fill="#0f172a"/>
  <path d="M206 77l33 12v24c0 22-13 36-33 45-20-9-33-23-33-45V89l33-12Z" fill="none" stroke="#fff" stroke-width="8" stroke-linejoin="round"/>
  <path d="M211 96l-23 34h17l-5 21 25-35h-18l4-20Z" fill="#fff"/>
  <path d="M159 151h40l18 18v46h-58v-64Z" fill="#fff"/>
  <path d="M199 151v18h18" fill="#e2e8f0"/>
  <path d="M174 190h27M174 207h18" stroke="#7c3aed" stroke-width="6" stroke-linecap="round"/>
  <text x="315" y="118" font-family="Segoe UI, Arial, sans-serif" font-size="56" font-weight="800" fill="#f8fafc">Kasyanov Stack</text>
  <text x="318" y="162" font-family="Segoe UI, Arial, sans-serif" font-size="23" fill="#94a3b8">Car sharing, VPN, and AI resume tools from one builder.</text>
</svg>
